<svg xmlns="http://www.w3.org/2000/svg" width="19.18" height="19.047" viewBox="0 0 19.18 19.047">
  <path id="Caminho_25" data-name="Caminho 25" d="M75.363,1572.115c.219-.328,4.32-.437,5.2.328s1.586,4.375,1.422,4.922-1.7,1.094-1.969,1.7,5.031,4.813,5.36,4.758,1.2-1.969,1.969-1.859,4.32.984,4.7,1.586.273,4.156-.383,4.7a2.956,2.956,0,0,1-1.969.656,14.4,14.4,0,0,1-5.578-1.859,13.006,13.006,0,0,1-4.539-3.5,11.7,11.7,0,0,1-2.789-3.719,9.639,9.639,0,0,1-1.313-3.609,9.053,9.053,0,0,1-.383-2.953C75.062,1572.238,75.144,1572.443,75.363,1572.115Z" transform="translate(-74.087 -1570.864)" fill="none" stroke="#acacac" stroke-linecap="round" stroke-width="2"/>
</svg>
