<svg xmlns="http://www.w3.org/2000/svg" xmlns:xlink="http://www.w3.org/1999/xlink" width="668.157" height="469.16" viewBox="0 0 668.157 469.16">
  <defs>
    <clipPath id="clip-path">
      <rect width="390" height="195" fill="none"/>
    </clipPath>
  </defs>
  <g id="vector" transform="translate(-1159 -340)">
    <g id="pessoa">
      <path id="Caminho_21" data-name="Caminho 21" d="M5511.243,808.159h295.914" transform="translate(-3980)" fill="none" stroke="#424058" stroke-width="2"/>
      <path id="Caminho_9" data-name="Caminho 9" d="M5640.426,537.986h46.859a3.525,3.525,0,0,0,1.718-.825,5.324,5.324,0,0,0,1.093-1.874s-.156-15.932,0-19.837-9.372-24.367-27.022-23.273-25.147,17.338-25.46,23.273,0,19.837,0,19.837a5,5,0,0,0,.937,2.343A2.168,2.168,0,0,0,5640.426,537.986Z" transform="translate(-3980)" fill="#2f2e41"/>
      <path id="Caminho_8" data-name="Caminho 8" d="M5675.883,519.2a13.327,13.327,0,0,1-1.25-2.812c-.3-1.007-.321-2.343-1.093-2.343-.666,0-1.15.948-1.718,2.343-.472,1.141-.937,2.812-.937,2.812h-27.022s.781,19.837,19.525,18.744,18.275-18.744,18.275-18.744Z" transform="translate(-3980)" fill="#ffb8b8"/>
      <path id="Caminho_10" data-name="Caminho 10" d="M5650.19,544.869s-11.634-1.928-15.695-.522-45.609,28.9-44.672,39.049,29.053,18.9,29.053,18.9l-3.124,72.319,32.733,4.584,1.688-68.616s-1.581-4.709-2.557-6-.966-.382-1.646-.93c-1.6-1.289-2.023-.273-2.023-.273l4.539-6.945-.869-1.326Z" transform="translate(-3980)" fill="#3f3d56"/>
      <path id="Caminho_11" data-name="Caminho 11" d="M5620.594,581.834v-5.467l-3.437,3.436Z" transform="translate(-3980)" fill="#f1f1f1"/>
      <path id="Caminho_12" data-name="Caminho 12" d="M5641.675,604.17h1.406l2.655,1.874a9.955,9.955,0,0,0,1.875,3.749c1.835,1.757,1.093,1.054,2.812,1.406a10.7,10.7,0,0,0,4.061,0c.937-.156,2.89-1.8,4.061-4.061a8.591,8.591,0,0,0,.625-5,11,11,0,0,0-3.749-4.061,13.889,13.889,0,0,0-5.779-1.406l-3.9-1.718Z" transform="translate(-3980)" fill="#feb7b7"/>
      <path id="Caminho_14" data-name="Caminho 14" d="M5706.654,643.219l7.341-2.655-2.5-20.774-10-28.584-6.675-16.042-2.417-12.584s-2.116-6.44-4.5-9.642-4.529-3.593-4.529-3.593l-6.97-1.135,5.311,60.917,2.185,69.111,27.59-8.777Z" transform="translate(-3980)" fill="#3f3d56"/>
      <path id="Caminho_15" data-name="Caminho 15" d="M5712.554,641.054l2.68,19.409a8.078,8.078,0,0,1-.405,2.017,7.366,7.366,0,0,1-.974,1.748l-.007.025a7.249,7.249,0,0,1-1.155,1.431,10.747,10.747,0,0,1-1.674,1.212l-4.381-23.673Z" transform="translate(-3980)" fill="#ffb8b8"/>
      <path id="Caminho_16" data-name="Caminho 16" d="M5626.946,675.974l-24.424,99.9,28.225,10.153,38.377-123.255,17.463,124.473,35.129-11.371L5701.2,672.609l-16.46,4.973.99-67.155-7.323,6.255h-6.825l-7.962,1.424L5653.31,613.7l-5.617-.355-.081,65.275Z" transform="translate(-3980)" fill="#2f2e41"/>
      <path id="Caminho_17" data-name="Caminho 17" d="M5613.9,780.346l-3.462,10.786,8.641,2.844,3.958-10.381Z" transform="translate(-3980)" fill="#ffb8b8"/>
      <path id="Caminho_18" data-name="Caminho 18" d="M5694.921,784.813v12.755h9.887l.875-16.41Z" transform="translate(-3980)" fill="#ffb8b8"/>
      <path id="Caminho_13" data-name="Caminho 13" d="M5679.269,548.86h0a64.619,64.619,0,0,0-8.9-2.562,104.074,104.074,0,0,0-10.589-1.5h-10.153l-2.233,50.358a4.726,4.726,0,0,0,2.233,1.624c1.371.406,1.215-.09,3.348.367a8.038,8.038,0,0,1,4.484,2.734,6.667,6.667,0,0,1,1.7,2.461s.6,3.172-1.014,5.2-1.163,2.28-3.416,3.336a9.55,9.55,0,0,1-2.625.547l-2.789-.547-1.917-1.312s-.012,3.513,0,4.073,5.468,2.876,10.747,4.4,5.849,1.27,10.371,1.693a25.881,25.881,0,0,0,7.914-.156,22.712,22.712,0,0,0,4.692-2.589,11.658,11.658,0,0,0,3.258-3.347c1.849-2.64,1.4-3.655,1.4-3.655Z" transform="translate(-3980)" fill="#6c63ff"/>
      <path id="Caminho_19" data-name="Caminho 19" d="M5608.963,790.414l-3.05,10.352,26.618,7.394-.256-7.29a9.949,9.949,0,0,0-1.892-2.987,14.082,14.082,0,0,0-2.75-2.108Z" transform="translate(-3980)" fill="#2f2e41"/>
      <path id="Caminho_20" data-name="Caminho 20" d="M5692.923,797.2v10.238h28.012l-3.178-7.262a7.337,7.337,0,0,0-2.315-1.792,19.085,19.085,0,0,0-3.323-1.184Z" transform="translate(-3980)" fill="#2f2e41"/>
    </g>
    <g id="calendário" transform="translate(150 -300)">
      <rect id="Retângulo_8" data-name="Retângulo 8" width="426" height="265" transform="translate(1009 669)" fill="#fff"/>
      <g id="Repetição_de_grade_2" data-name="Repetição de grade 2" transform="translate(1033 720)" clip-path="url(#clip-path)">
        <g transform="translate(-1185 -422)">
          <rect id="Retângulo_9" data-name="Retângulo 9" width="79" height="51" transform="translate(1185 422)" fill="#f1f1f1"/>
        </g>
        <g transform="translate(-1086 -422)">
          <rect id="Retângulo_9-2" data-name="Retângulo 9" width="79" height="51" transform="translate(1185 422)" fill="#f1f1f1"/>
        </g>
        <g transform="translate(-987 -422)">
          <rect id="Retângulo_9-3" data-name="Retângulo 9" width="79" height="51" transform="translate(1185 422)" fill="#f1f1f1"/>
        </g>
        <g transform="translate(-888 -422)">
          <rect id="Retângulo_9-4" data-name="Retângulo 9" width="79" height="51" transform="translate(1185 422)" fill="#f1f1f1"/>
        </g>
        <g transform="translate(-1185 -351)">
          <rect id="Retângulo_9-5" data-name="Retângulo 9" width="79" height="51" transform="translate(1185 422)" fill="#f1f1f1"/>
        </g>
        <g transform="translate(-1086 -351)">
          <rect id="Retângulo_9-6" data-name="Retângulo 9" width="79" height="51" transform="translate(1185 422)" fill="#f1f1f1"/>
        </g>
        <g transform="translate(-987 -351)">
          <rect id="Retângulo_9-7" data-name="Retângulo 9" width="79" height="51" transform="translate(1185 422)" fill="#f1f1f1"/>
        </g>
        <g transform="translate(-888 -351)">
          <rect id="Retângulo_9-8" data-name="Retângulo 9" width="79" height="51" transform="translate(1185 422)" fill="#f1f1f1"/>
        </g>
        <g transform="translate(-1185 -280)">
          <rect id="Retângulo_9-9" data-name="Retângulo 9" width="79" height="51" transform="translate(1185 422)" fill="#f1f1f1"/>
        </g>
        <g transform="translate(-1086 -280)">
          <rect id="Retângulo_9-10" data-name="Retângulo 9" width="79" height="51" transform="translate(1185 422)" fill="#f1f1f1"/>
        </g>
        <g transform="translate(-987 -280)">
          <rect id="Retângulo_9-11" data-name="Retângulo 9" width="79" height="51" transform="translate(1185 422)" fill="#f1f1f1"/>
        </g>
        <g transform="translate(-888 -280)">
          <rect id="Retângulo_9-12" data-name="Retângulo 9" width="79" height="51" transform="translate(1185 422)" fill="#f1f1f1"/>
        </g>
      </g>
      <circle id="Elipse_6" data-name="Elipse 6" cx="13" cy="13" r="13" transform="translate(1105 680)" fill="#f1f1f1"/>
      <circle id="Elipse_7" data-name="Elipse 7" cx="13" cy="13" r="13" transform="translate(1299 680)" fill="#f1f1f1"/>
      <rect id="Retângulo_10" data-name="Retângulo 10" width="11" height="53" transform="translate(1113 640)" fill="#fff"/>
      <rect id="Retângulo_11" data-name="Retângulo 11" width="11" height="53" transform="translate(1307 640)" fill="#fff"/>
      <g id="Grupo_7" data-name="Grupo 7">
        <circle id="Elipse_8" data-name="Elipse 8" cx="17.5" cy="17.5" r="17.5" transform="translate(1054 800)" fill="#6c63ff"/>
        <line id="Linha_10" data-name="Linha 10" x2="9" y2="7" transform="translate(1062.5 819.5)" fill="none" stroke="#fff" stroke-linecap="round" stroke-width="3"/>
        <line id="Linha_11" data-name="Linha 11" x1="12" y2="16" transform="translate(1071.5 810.5)" fill="none" stroke="#fff" stroke-linecap="round" stroke-width="3"/>
      </g>
      <g id="Grupo_8" data-name="Grupo 8" transform="translate(100)">
        <circle id="Elipse_8-2" data-name="Elipse 8" cx="17.5" cy="17.5" r="17.5" transform="translate(1054 800)" fill="#6c63ff"/>
        <line id="Linha_10-2" data-name="Linha 10" x2="9" y2="7" transform="translate(1062.5 819.5)" fill="none" stroke="#fff" stroke-linecap="round" stroke-width="3"/>
        <line id="Linha_11-2" data-name="Linha 11" x1="12" y2="16" transform="translate(1071.5 810.5)" fill="none" stroke="#fff" stroke-linecap="round" stroke-width="3"/>
      </g>
      <g id="Grupo_9" data-name="Grupo 9" transform="translate(299 -72)">
        <circle id="Elipse_8-3" data-name="Elipse 8" cx="17.5" cy="17.5" r="17.5" transform="translate(1054 800)" fill="#6c63ff"/>
        <line id="Linha_10-3" data-name="Linha 10" x2="9" y2="7" transform="translate(1062.5 819.5)" fill="none" stroke="#fff" stroke-linecap="round" stroke-width="3"/>
        <line id="Linha_11-3" data-name="Linha 11" x1="12" y2="16" transform="translate(1071.5 810.5)" fill="none" stroke="#fff" stroke-linecap="round" stroke-width="3"/>
      </g>
    </g>
  </g>
</svg>
